<?xml version="1.0" encoding="utf-8"?>
<!-- Generator: Adobe Illustrator 23.0.0, SVG Export Plug-In . SVG Version: 6.00 Build 0)  -->
<svg version="1.1" id="Layer_1" xmlns="http://www.w3.org/2000/svg" xmlns:xlink="http://www.w3.org/1999/xlink" x="0px" y="0px"
	 viewBox="0 0 151 151" style="enable-background:new 0 0 151 151;" xml:space="preserve">
<style type="text/css">
	.st0{fill:#B1D34B;}
	.st1{fill:white;}
	.st2{fill:#ECECEC;}
	.st3{fill:none;stroke:#7C7C83;stroke-width:2;stroke-linecap:round;stroke-linejoin:round;stroke-miterlimit:10;}
	.st4{fill:none;stroke:#ECECEC;stroke-width:2;stroke-miterlimit:10;}
	.st5{fill:#00995D;}
	.st6{fill:#FFFFFF;}
	.st7{fill-rule:evenodd;clip-rule:evenodd;fill:#FFFFFF;}
	.st8{fill:none;stroke:#333333;stroke-width:2;stroke-miterlimit:10;}
	.st9{fill:none;stroke:#333333;stroke-width:2;stroke-linecap:round;stroke-linejoin:round;stroke-miterlimit:10;}
</style>
<path class="st1" d="M76.03,1.94C35.21,1.94,2,35.15,2,75.97C2,116.79,35.21,150,76.03,150c40.82,0,74.03-33.21,74.03-74.03
	C150.06,35.15,116.85,1.94,76.03,1.94z M33.51,126.07c0.03-0.2,0.06-0.39,0.06-0.59c0-23.41,19.05-42.46,42.46-42.46
	s42.46,19.05,42.46,42.46c0,0.2,0.03,0.4,0.06,0.6c-11.47,9.75-26.32,15.65-42.52,15.65C59.82,141.73,44.98,135.83,33.51,126.07z
	 M76.03,73.29c-11.37,0-20.62-9.25-20.62-20.62s9.25-20.62,20.62-20.62s20.62,9.25,20.62,20.62S87.4,73.29,76.03,73.29z
	 M126.25,118.36c-2.75-19.46-16.57-35.41-34.87-41.23c8.12-5.12,13.54-14.16,13.54-24.46c0-15.93-12.96-28.89-28.89-28.89
	S47.14,36.74,47.14,52.67c0,10.29,5.41,19.34,13.54,24.46c-18.3,5.82-32.12,21.77-34.87,41.23c-9.68-11.46-15.54-26.24-15.54-42.38
	c0-36.26,29.5-65.76,65.76-65.76c36.26,0,65.76,29.5,65.76,65.76C141.79,92.11,135.93,106.9,126.25,118.36z"/>
</svg>
