<?xml version="1.0" encoding="UTF-8" standalone="no"?>
<!-- Created with Inkscape (http://www.inkscape.org/) -->

<svg
   xmlns:dc="http://purl.org/dc/elements/1.1/"
   xmlns:cc="http://creativecommons.org/ns#"
   xmlns:rdf="http://www.w3.org/1999/02/22-rdf-syntax-ns#"
   xmlns:svg="http://www.w3.org/2000/svg"
   xmlns="http://www.w3.org/2000/svg"
   xmlns:sodipodi="http://sodipodi.sourceforge.net/DTD/sodipodi-0.dtd"
   xmlns:inkscape="http://www.inkscape.org/namespaces/inkscape"
   width="700mm"
   height="700mm"
   viewBox="0 0 700 700"
   version="1.1"
   id="svg883"
   inkscape:export-filename="C:\Users\suitedoalex\sites\assim-saude-logo-0.png"
   inkscape:export-xdpi="148.6263"
   inkscape:export-ydpi="148.6263"
   inkscape:version="0.92.4 (5da689c313, 2019-01-14)"
   sodipodi:docname="assim-saude-loogo.svg">
  <defs
     id="defs877" />
  <sodipodi:namedview
     id="base"
     pagecolor="#ffffff"
     bordercolor="#666666"
     borderopacity="1.0"
     inkscape:pageopacity="0.0"
     inkscape:pageshadow="2"
     inkscape:zoom="0.175"
     inkscape:cx="1820.2405"
     inkscape:cy="1069.5151"
     inkscape:document-units="mm"
     inkscape:current-layer="layer1"
     showgrid="false"
     inkscape:window-width="1600"
     inkscape:window-height="837"
     inkscape:window-x="-8"
     inkscape:window-y="-8"
     inkscape:window-maximized="1" />
  <metadata
     id="metadata880">
    <rdf:RDF>
      <cc:Work
         rdf:about="">
        <dc:format>image/svg+xml</dc:format>
        <dc:type
           rdf:resource="http://purl.org/dc/dcmitype/StillImage" />
        <dc:title></dc:title>
      </cc:Work>
    </rdf:RDF>
  </metadata>
  <g
     inkscape:label="Layer 1"
     inkscape:groupmode="layer"
     id="layer1"
     transform="translate(0,403)">
    <path
       d="m 313.89083,-65.604195 v 20.315806 c -6.22704,-2.372967 -12.30669,-4.151624 -18.23909,-5.339881 -5.9312,-1.187093 -11.56612,-1.780891 -16.7564,-1.780891 -6.96944,0 -12.15867,0.743842 -15.56988,2.372966 -3.26155,1.630596 -4.89256,4.152033 -4.89256,7.56366 0,2.519324 1.03666,4.596458 3.26159,5.933036 2.2249,1.482526 6.37693,2.667384 12.30814,3.705635 l 12.45632,2.077096 c 12.60441,2.224934 21.5007,5.485483 26.83954,9.786732 5.33871,4.300205 8.00792,10.527658 8.00792,18.5357336 0,10.5291158 -3.70745,18.3874124 -11.12144,23.5759774 -7.4156,5.044416 -18.68522,7.711687 -33.95885,7.711687 -7.26607,0 -14.3836,-0.592375 -21.64915,-1.780519 -7.26566,-1.186278 -14.5336,-2.81541 -21.65109,-5.186961 V 1.123532 c 7.11749,3.2634097 14.23699,5.6349596 20.90897,7.2677856 6.82139,1.6305874 13.34653,2.5193164 19.57399,2.5193164 6.37693,0 11.26952,-0.888729 14.6811,-2.6673828 3.26159,-1.7810031 5.04077,-4.4486465 5.04077,-7.7136662 0,-2.9638874 -1.18524,-5.3388285 -3.41017,-6.8197805 -2.37298,-1.630745 -6.96969,-3.115384 -13.79108,-4.4484235 l -11.26966,-2.074899 c -11.41769,-2.076724 -19.72187,-5.339089 -24.91214,-9.787104 -5.33883,-4.448275 -7.85841,-10.529111 -7.85841,-18.091318 0,-9.492427 3.5582,-16.904179 10.82337,-21.948368 7.41597,-5.189091 17.79519,-7.710277 31.4382,-7.710277 6.22732,0 12.75206,0.446175 19.27758,1.186693 6.52359,0.888616 13.34495,2.076762 20.46243,3.559697"
       style="fill:#15578e;fill-opacity:1;fill-rule:evenodd;stroke:none;stroke-width:1.31605601"
       id="path28"
       inkscape:connector-curvature="0"
       inkscape:export-xdpi="19.437023"
       inkscape:export-ydpi="19.437023" />
    <path
       d="m 412.65061,-65.604195 v 20.315806 c -6.22707,-2.372967 -12.30791,-4.151624 -18.23912,-5.339881 -5.93079,-1.187093 -11.56587,-1.780891 -16.75652,-1.780891 -6.96946,0 -12.16012,0.743842 -15.56987,2.372966 -3.26159,1.630596 -5.0426,4.152033 -5.0426,7.56366 0,2.519324 1.18666,4.596458 3.412,5.933036 2.22308,1.482526 6.37548,2.667384 12.30788,3.705635 l 12.45635,2.077096 c 12.60438,2.224934 21.50094,5.485483 26.83976,9.786732 5.33846,4.300205 8.0061,10.527658 8.0061,18.5357336 0,10.5291158 -3.70589,18.3874124 -11.12003,23.5759774 -7.41555,5.044416 -18.68522,7.711687 -33.95885,7.711687 -7.26591,0 -14.38344,-0.592375 -21.6491,-1.780519 -7.26752,-1.186278 -14.53349,-2.81541 -21.6506,-5.186961 V 1.123532 c 7.11711,3.2634097 14.23501,5.6349596 20.9086,7.2677856 6.82123,1.6305874 13.34638,2.5193164 19.57383,2.5193164 6.37697,0 11.26967,-0.888729 14.68126,-2.6673828 3.26158,-1.7810031 5.04065,-4.4486465 5.04065,-7.7136662 0,-2.9638874 -1.18632,-5.3388285 -3.40965,-6.8197805 -2.37338,-1.630745 -6.96943,-3.115384 -13.79123,-4.4484235 l -11.41769,-2.074899 c -11.26966,-2.076724 -19.57424,-5.339089 -24.76449,-9.787104 -5.33845,-4.448275 -7.85991,-10.529111 -7.85991,-18.091318 0,-9.492427 3.55971,-16.904179 10.82562,-21.948368 7.41351,-5.189091 17.79441,-7.710277 31.43745,-7.710277 6.22745,0 12.60438,0.446175 19.27759,1.186693 6.52365,0.888616 13.34493,2.076762 20.46257,3.559697"
       style="fill:#15578e;fill-opacity:1;fill-rule:evenodd;stroke:none;stroke-width:1.31605601"
       id="path30"
       inkscape:connector-curvature="0"
       inkscape:export-xdpi="19.437023"
       inkscape:export-ydpi="19.437023" />
    <path
       d="m 436.37644,-68.571778 h 29.21329 v 95.496444 h -29.21329 z"
       style="fill:#15578e;fill-opacity:1;fill-rule:evenodd;stroke:none;stroke-width:1.31605601"
       id="path32"
       inkscape:connector-curvature="0"
       inkscape:export-xdpi="19.437023"
       inkscape:export-ydpi="19.437023" />
    <path
       d="m 484.86695,-68.571778 h 37.07274 l 25.80129,51.158115 26.09883,-51.158115 h 37.07133 V 26.924666 H 583.33082 V -42.916465 L 557.08341,8.5372561 H 538.54662 L 512.44909,-42.916465 v 69.841131 h -27.58214 z"
       style="fill:#15578e;fill-opacity:1;fill-rule:evenodd;stroke:none;stroke-width:1.31605601"
       id="path34"
       inkscape:connector-curvature="0"
       inkscape:export-xdpi="19.437023"
       inkscape:export-ydpi="19.437023" />
    <path
       d="m 88.643107,26.924666 44.190263,-95.644617 h 44.18829 l 44.1903,95.644617 h -35.43984 l -30.6957,-80.36879 -31.14116,80.36879 z"
       style="fill:#15578e;fill-opacity:1;fill-rule:evenodd;stroke:none;stroke-width:1.31605601"
       id="path36"
       inkscape:connector-curvature="0"
       inkscape:export-xdpi="19.437023"
       inkscape:export-ydpi="19.437023" />
    <path
       d="m 167.53121,-118.09867 c -4.15219,-3.41159 -9.48904,-4.89254 -14.82787,-4.3002 -11.12148,1.33292 -19.12957,11.26966 -17.94314,22.39111 0.59238,5.336998 3.26199,10.233013 7.5622,13.643038 4.15203,3.261583 9.4905,4.894525 14.82932,4.152145 11.12186,-1.186693 19.12953,-11.271492 17.94325,-22.243463 -0.74238,-5.48648 -3.26211,-10.231 -7.56377,-13.64263"
       style="fill:#bb3333;fill-opacity:1;fill-rule:evenodd;stroke:none;stroke-width:1.31605601"
       id="path38"
       inkscape:connector-curvature="0"
       inkscape:export-xdpi="19.437023"
       inkscape:export-ydpi="19.437023" />
    <path
       d="m 434.15378,-122.10263 v 5.48876 c -2.52144,-1.04049 -4.89442,-1.78104 -7.11976,-2.22531 -2.22307,-0.44617 -4.30021,-0.74241 -6.3751,-0.74241 -3.55967,0 -6.22887,0.59434 -8.15652,1.77879 -1.92684,1.18893 -2.96504,2.9677 -2.96504,5.0426 0,1.92869 0.59206,3.26199 1.92682,4.3002 1.33487,0.88899 3.70784,1.63282 7.26753,2.22521 l 4.0021,0.74054 c 4.89456,0.74238 8.45238,2.22349 10.82536,4.30022 2.37337,1.926828 3.412,4.746078 3.412,8.154264 0,4.003591 -1.48294,7.121182 -4.59829,9.344253 -3.26173,2.077134 -7.85845,3.111688 -13.93928,3.111688 -2.22333,0 -4.59604,-0.295833 -7.26556,-0.740546 -2.52117,-0.442069 -5.19039,-1.038213 -8.00807,-1.926829 v -5.932664 c 2.66924,1.336579 5.33847,2.224934 7.85989,2.966942 2.52115,0.594171 5.04223,1.037021 7.41374,1.037021 3.8559,0 6.67321,-0.738683 8.75004,-1.926829 1.92751,-1.333301 2.96576,-3.113894 2.96576,-5.485445 0,-2.078587 -0.74238,-3.707347 -2.07713,-4.896237 -1.48253,-1.18631 -3.85553,-2.07504 -7.26529,-2.667378 l -4.00439,-0.59238 c -4.89254,-0.892 -8.30415,-2.22675 -10.52725,-4.0037 -2.22518,-1.77944 -3.26339,-4.30207 -3.26339,-7.56179 0,-3.7097 1.48276,-6.52552 4.44827,-8.75229 3.11534,-2.07348 7.26752,-3.11195 12.45631,-3.11195 2.37296,0 4.5979,0.14624 6.96945,0.44431 2.37337,0.44428 4.74636,0.8904 7.26779,1.63096"
       style="fill:#0d9fe3;fill-opacity:1;fill-rule:evenodd;stroke:none;stroke-width:1.31605601"
       id="path40"
       inkscape:connector-curvature="0"
       inkscape:export-xdpi="19.437023"
       inkscape:export-ydpi="19.437023" />
    <path
       d="m 461.28952,-117.8028 -8.89666,20.908967 h 17.7928 z m -3.70824,-5.6347 h 7.41596 l 18.38678,41.967303 h -6.82128 l -4.3002,-10.677554 h -21.79875 l -4.4479,10.677554 h -6.82176 z"
       style="fill:#0d9fe3;fill-opacity:1;fill-rule:evenodd;stroke:none;stroke-width:1.31605601"
       id="path42"
       inkscape:connector-curvature="0"
       inkscape:export-xdpi="19.437023"
       inkscape:export-ydpi="19.437023" />
    <path
       d="m 506.81413,-134.85336 h 5.9312 l -7.41414,7.4119 h -4.894 z m -20.31622,11.41586 h 6.52555 v 25.507018 c 0,4.446412 0.88822,7.709858 2.81728,9.786694 1.92723,1.926866 4.89255,2.963887 9.1928,2.963887 4.15214,0 7.11905,-1.037021 9.04654,-2.963887 1.92683,-2.076836 2.81742,-5.340282 2.81742,-9.786694 V -123.4375 h 6.52474 v 26.245598 c 0,5.488462 -1.48256,9.640487 -4.59791,12.456314 -3.11352,2.670662 -7.70997,4.151763 -13.7908,4.151763 -6.22734,0 -10.82379,-1.481101 -13.93914,-4.151763 -3.11356,-2.815827 -4.59648,-6.967851 -4.59648,-12.456314 z"
       style="fill:#0d9fe3;fill-opacity:1;fill-rule:evenodd;stroke:none;stroke-width:1.31605601"
       id="path44"
       inkscape:connector-curvature="0"
       inkscape:export-xdpi="19.437023"
       inkscape:export-ydpi="19.437023" />
    <path
       d="m 538.99239,-118.83918 v 32.770701 h 7.85803 c 6.67318,0 11.56774,-1.334754 14.68125,-4.002138 2.96572,-2.671072 4.59646,-6.823216 4.59646,-12.456303 0,-5.6346 -1.63074,-9.63908 -4.59646,-12.30818 -3.11352,-2.67119 -8.00807,-4.00408 -14.68125,-4.00408 z m -6.67322,-4.59832 h 13.49456 c 9.34085,0 16.31031,1.63111 20.61052,5.04259 4.45021,3.41122 6.52552,8.74863 6.52552,15.86799 0,7.263668 -2.22349,12.604373 -6.52552,16.012303 -4.44827,3.411478 -11.26967,5.04442 -20.61052,5.04442 h -13.49456 z"
       style="fill:#0d9fe3;fill-opacity:1;fill-rule:evenodd;stroke:none;stroke-width:1.31605601"
       id="path46"
       inkscape:connector-curvature="0"
       inkscape:export-xdpi="19.437023"
       inkscape:export-ydpi="19.437023" />
    <path
       d="m 580.06727,-123.4375 h 30.69569 v 4.7465 h -24.02248 v 12.45621 h 22.98359 v 4.74264 h -22.98359 v 15.275227 h 24.61641 v 4.746725 h -31.28962 z"
       style="fill:#0d9fe3;fill-opacity:1;fill-rule:evenodd;stroke:none;stroke-width:1.31605601"
       id="path48"
       inkscape:connector-curvature="0"
       inkscape:export-xdpi="19.437023"
       inkscape:export-ydpi="19.437023" />
  </g>
</svg>
